<?xml version="1.0" encoding="UTF-8"?><svg id="a" xmlns="http://www.w3.org/2000/svg" viewBox="0 0 32 16"><path d="m6.625,2h3.25c.3449,0,.625.2801.625.625h0c0,.3449-.2801.625-.625.625h-3.875v-.625c0-.3449.2801-.625.625-.625Z" style="fill:#333;"/><path d="m18.125,6.2h7.875v5h-7.875c-.3449,0-.625-.2801-.625-.625v-3.75c0-.3449.2801-.625.625-.625Z" style="fill:#444;"/><path d="m6,3.4h5.875c.3449,0,.625.2801.625.625h0c0,.3449-.2801.625-.625.625h-5.25c-.3449,0-.625-.2801-.625-.625v-.625h0Z" style="fill:#333;"/><path d="m21.625,4.8h3.75c.3449,0,.625.2801.625.625v.625h-4.375c-.3449,0-.625-.2801-.625-.625h0c0-.3449.2801-.625.625-.625Z" style="fill:#0c5;"/><path d="m19.625,11.35h6.375v.625c0,.3449-.2801.625-.625.625h-5.75c-.3449,0-.625-.2801-.625-.625h0c0-.3449.2801-.625.625-.625Z" style="fill:#0c5;"/><rect x="6" y="12.75" width="5.5" height="1.25" rx=".625" ry=".625" style="fill:#333;"/></svg>