<?xml version="1.0" encoding="UTF-8"?><svg id="a" xmlns="http://www.w3.org/2000/svg" viewBox="0 0 32 16"><path d="m24.5,3.75H7v8.5h18V3.75h-.5Zm-3.5.5v1.5h-3v-1.5h3Zm-7,3.5h-3v-1.5h3v1.5Zm.5-1.5h3v1.5h-3v-1.5Zm-.5,2v1.5h-3v-1.5h3Zm.5,0h3v1.5h-3v-1.5Zm3.5,0h3v1.5h-3v-1.5Zm0-.5v-1.5h3v1.5h-3Zm-.5-3.5v1.5h-3v-1.5h3Zm-3.5,0v1.5h-3v-1.5h3Zm-6.5,0h3v1.5h-3v-1.5Zm0,2h3v1.5h-3v-1.5Zm0,2h3v1.5h-3v-1.5Zm0,3.5v-1.5h3v1.5h-3Zm3.5,0v-1.5h3v1.5h-3Zm3.5,0v-1.5h3v1.5h-3Zm3.5,0v-1.5h3v1.5h-3Zm6.5,0h-3v-1.5h3v1.5Zm0-2h-3v-1.5h3v1.5Zm0-2h-3v-1.5h3v1.5Zm0-2h-3v-1.5h3v1.5Z" style="fill:#333;"/></svg>