<?xml version="1.0" standalone="no"?>
<!DOCTYPE svg PUBLIC "-//W3C//DTD SVG 20010904//EN"
 "http://www.w3.org/TR/2001/REC-SVG-20010904/DTD/svg10.dtd">
<svg version="1.0" xmlns="http://www.w3.org/2000/svg"
 width="700.000000pt" height="700.000000pt" viewBox="0 0 700.000000 700.000000"
 preserveAspectRatio="xMidYMid meet">
<metadata>
Created by potrace 1.14, written by Peter Selinger 2001-2017
</metadata>
<g transform="translate(0.000000,700.000000) scale(0.100000,-0.100000)"
fill="#000000" stroke="none">
<path d="M3495 6990 c-155 -24 -257 -57 -399 -128 -179 -90 -369 -264 -468
-429 -11 -18 -25 -33 -31 -33 -6 0 -40 15 -76 34 -78 40 -237 90 -340 106
-137 22 -332 16 -455 -16 -244 -62 -425 -162 -591 -329 -181 -182 -298 -410
-340 -664 -13 -81 -15 -336 -2 -386 3 -11 12 -51 21 -90 49 -210 161 -410 316
-565 86 -87 105 -102 186 -157 47 -32 634 -374 824 -481 91 -51 335 -194 342
-200 4 -4 -311 -7 -700 -8 -691 -1 -709 -1 -811 -23 -280 -60 -514 -203 -706
-432 -87 -104 -182 -291 -220 -435 -34 -129 -40 -175 -40 -319 0 -169 12 -246
56 -380 61 -183 158 -343 288 -472 123 -123 200 -178 341 -246 135 -65 259
-100 400 -112 132 -12 126 -9 127 -64 2 -81 21 -191 48 -286 130 -448 518
-788 984 -862 88 -14 331 -8 421 11 373 78 676 311 848 651 42 82 58 123 81
207 45 164 47 201 47 937 -1 368 2 667 6 663 6 -6 144 -243 202 -345 129 -230
465 -802 500 -852 81 -112 188 -217 312 -303 49 -34 191 -105 259 -129 88 -32
140 -45 250 -63 69 -12 329 -5 390 10 28 6 60 14 72 16 88 17 290 107 378 168
128 89 252 214 330 331 241 362 275 805 92 1198 l-44 93 41 24 c115 65 277
223 360 350 80 122 146 274 175 405 21 97 23 111 26 240 6 220 -37 407 -136
593 -93 175 -192 291 -349 411 -352 266 -859 316 -1250 121 -41 -20 -205 -113
-365 -205 -159 -92 -306 -177 -325 -188 -53 -30 -193 -111 -211 -122 -9 -5
-40 -23 -70 -39 -30 -16 -65 -36 -79 -46 -43 -28 -142 -82 -138 -73 3 4 39 67
80 138 42 72 124 213 182 315 58 102 110 192 116 200 5 8 46 80 92 159 46 80
98 170 116 200 88 151 161 318 179 411 45 230 43 378 -11 610 -1 8 -6 22 -9
30 -3 8 -15 42 -27 75 -136 378 -480 672 -891 761 -83 18 -326 26 -404 14z"/>
</g>
</svg>
