<?xml version="1.0" encoding="UTF-8"?><svg id="a" xmlns="http://www.w3.org/2000/svg" viewBox="0 0 32 16"><rect x="14" y="8.75" width="4" height="1" rx=".5" ry=".5" style="fill:#0c6;"/><path d="m23,6.5c-.3255,0-.5958.2101-.6995.5h-5.601c-.1038-.2899-.374-.5-.6995-.5s-.5958.2101-.6995.5h-5.601c-.1038-.2899-.374-.5-.6995-.5-.4142,0-.75.3358-.75.75s.3358.75.75.75c.3255,0,.5958-.2101.6995-.5h5.601c.1038.2899.374.5.6995.5s.5958-.2101.6995-.5h5.601c.1038.2899.374.5.6995.5.4142,0,.75-.3358.75-.75s-.3358-.75-.75-.75Z" style="fill:#eee;"/><rect x="21" y="8.75" width="4" height="1" rx=".5" ry=".5" style="fill:#0c6;"/><rect x="7" y="8.75" width="4" height="1" rx=".5" ry=".5" style="fill:#0c6;"/></svg>