<?xml version="1.0" encoding="UTF-8"?><svg id="a" xmlns="http://www.w3.org/2000/svg" viewBox="0 0 32 16"><path d="m10,8.7683h3c.5519,0,1,.4481,1,1h-5c0-.5519.4481-1,1-1Z" style="fill:#eee;"/><rect x="12.4986" y="3.2271" width="1" height="9" rx=".5" ry=".5" transform="translate(-1.9481 5.432) rotate(-22.0001)" style="fill:#eee;"/><rect x="9.5014" y="3.2271" width="1" height="9" rx=".5" ry=".5" transform="translate(16.38 18.6382) rotate(-157.9999)" style="fill:#eee;"/><circle cx="11.5" cy="4.0183" r=".5" style="fill:#eee;"/><path d="m19,8.75h3c.5519,0,1,.4481,1,1v.5h-5v-.5c0-.5519.4481-1,1-1Z" style="fill:#eee;"/><rect x="21.155" y="3.2271" width="1.5" height="9" rx=".75" ry=".75" transform="translate(-1.2996 8.7684) rotate(-22.0001)" style="fill:#eee;"/><rect x="18.345" y="3.2271" width="1.5" height="9" rx=".75" ry=".75" transform="translate(33.905 22.0448) rotate(-157.9999)" style="fill:#eee;"/><circle cx="20.5" cy="4.25" r=".75" style="fill:#eee;"/></svg>