<?xml version="1.0" encoding="UTF-8"?><svg id="a" xmlns="http://www.w3.org/2000/svg" viewBox="0 0 5.7590057 5.7589241"><path d="m5.6248779,2.2517829c-.2761841-.4782715-.8877563-.6421509-1.3660278-.3660278l-.9123535.5267334.5267334-.9122925c.276123-.4783325.1121826-1.0899048-.3660278-1.3660278-.4783325-.2761841-1.0899048-.1123047-1.3660278.3660278-.4783325-.2761841-1.0899048-.1123047-1.3660278.3660278-.2761841.4782715-.1123047,1.0898438.3660278,1.3660278l.9122314.5266724h-1.0534058c-.5523071,0-1,.4477539-1,1,0,.5523071.4476929,1,1,1,0,.5523071.4476929,1,1,1s1-.4476929,1-1v-1.0535278l.5267944.9124146c.276123.4783325.8877563.6421509,1.3660278.3660278s.6421509-.8876953.3660278-1.3660278c.4782715-.276123.6421509-.8876953.3660278-1.3660278Z" style="fill:#0c5;"/></svg>